<svg width="1000" height="1000" style="position:absolute"><symbol id="custom" viewBox="0 0 150 150"><style>.ast0{fill:#f1f2f2}.ast1{fill:#bd993a}.ast2{fill:#ffcc4e}.st3{fill:#2d4447}.ast4{fill:#bcbec0}.st5{fill:#808285}.ast6{fill:#84c98b}.ast7{fill:#619869}.ast8{fill:#04c1e9}.ast9{fill:#0592b1}</style><circle class="ast0" cx="75" cy="75" r="75"/><path class="ast4" d="M113.4 57.1H36.6c-2.2 0-4-1.8-4-4s1.8-4 4-4h76.8c2.2 0 4 1.8 4 4s-1.8 4-4 4zM113.4 79H36.6c-2.2 0-4-1.8-4-4s1.8-4 4-4h76.8c2.2 0 4 1.8 4 4s-1.8 4-4 4zM113.4 100.9H36.6c-2.2 0-4-1.8-4-4s1.8-4 4-4h76.8c2.2 0 4 1.8 4 4s-1.8 4-4 4z"/><g id="atop-slider"><path class="ast2" d="M50.8 60.4c-4 0-7.3-3.3-7.3-7.3s3.3-7.3 7.3-7.3v14.6z"/><path class="ast1" d="M50.8 45.8c4 0 7.3 3.3 7.3 7.3s-3.3 7.3-7.3 7.3V45.8z"/></g><g id="amid-slider"><path class="ast6" d="M98.7 82.3c-4 0-7.3-3.3-7.3-7.3s3.3-7.3 7.3-7.3v14.6z"/><path class="ast7" d="M98.7 67.7c4 0 7.3 3.3 7.3 7.3s-3.3 7.3-7.3 7.3V67.7z"/></g><g id="abottom-slider"><path class="ast8" d="M64.6 104.2c-4 0-7.3-3.3-7.3-7.3s3.3-7.3 7.3-7.3v14.6z"/><path class="ast9" d="M64.6 89.6c4 0 7.3 3.3 7.3 7.3s-3.3 7.3-7.3 7.3V89.6z"/></g></symbol><symbol id="icons" viewBox="0 0 288 216"><style>.bst0{fill:none;stroke:#414142;stroke-linecap:round;stroke-linejoin:round;stroke-miterlimit:10}.bst1{fill:none;stroke:#0d79a6}.bst1,.bst2,.bst3,.bst4{stroke-linecap:round;stroke-linejoin:round;stroke-miterlimit:10}.bst2{stroke:#414142;fill:#414142}.bst3,.bst4{fill:none}.bst3{stroke-width:1.25;stroke:#414142}.bst4{stroke:#525656}.bst5{fill:#414142}.bst6,.bst7{fill:#0d79a6;stroke:#0d79a6;stroke-linecap:round;stroke-linejoin:round;stroke-miterlimit:10}.bst7{fill:none;stroke-width:1.25}.bst8{fill:#0d79a6}.bst10,.bst11,.bst9{fill:none;stroke:#949494;stroke-linecap:round;stroke-linejoin:round;stroke-miterlimit:10}.bst10,.bst11{fill:#949494}.bst11{fill:none;stroke-width:1.25}.bst12{fill:#949494}.bst13,.bst14,.bst15{fill:none;stroke:#fff;stroke-linecap:round;stroke-linejoin:round;stroke-miterlimit:10}.bst14,.bst15{fill:#fff}.bst15{fill:none;stroke-width:1.25}.bst16{fill:#fff}</style><path class="bst0" d="M2.5 28.5h19v15h-19z"/><path class="bst1" d="M74.5 4.5h19v15h-19z"/><path class="bst0" d="M2.5 76.5h19v15h-19zM21.5 41.5l-4.5-4-5 2-5-5-4.5 5"/><circle class="bst0" cx="14.5" cy="33.5" r="2"/><path class="bst0" d="M21.5 65.5h-5M12.5 65.5h-10M21.5 59.5h-12M21.5 53.5h-2M2.5 53.5h13M2.5 59.5h3"/><circle class="bst0" cx="14.5" cy="65.5" r="2"/><circle class="bst0" cx="17.5" cy="53.5" r="2"/><circle class="bst0" cx="7.5" cy="59.5" r="2"/><path class="bst0" d="M5.5 79.5h13M5.5 82.5h10M5.5 85.5h13M5.5 88.5h10M56.5 41.5v3h11v-14h-4"/><path class="bst0" d="M52.5 27.5h11v14h-11zM56.5 65.5v3h11v-14h-4"/><path class="bst2" d="M52.5 51.5h11v14h-11z"/><circle class="bst0" cx="59.5" cy="83.5" r="8"/><circle class="bst0" cx="59.5" cy="107.5" r="8"/><path class="bst0" d="M54.5 108.5l3 3 7-7M6.5 180.5l3 3 7-7M21.5 108s-4.3 4.5-9.5 4.5-9.5-4.5-9.5-4.5 4.3-4.5 9.5-4.5 9.5 4.5 9.5 4.5z"/><circle class="bst3" cx="12" cy="108" r="2.5"/><path class="bst0" d="M43.5 134.5v5h-15v-15h5M43.5 129.5v-5h-5M43.5 124.5l-11 11"/><path class="bst4" d="M5.5 135.5l5-5 5 2 4-6"/><path class="bst4" d="M21.5 139.5h-19v-15"/><path class="bst0" d="M28.5 11.5h14M35.5 4.5v14M42.5 92.5h-13v-17h9l4 4z"/><path class="bst0" d="M42.5 79.5h-4v-4M32.5 82.5h7M32.5 79.5h3M32.5 85.5h7M32.5 88.5h7M42.5 116.5h-13M29.5 99.5h9l4 4"/><path class="bst0" d="M42.5 103.5h-4v-4M32.5 106.5h7M32.5 103.5h3M32.5 109.5h7M32.5 112.5h7M29.5 53.5l13 13M42.5 53.5l-13 13"/><circle class="bst3" cx="36" cy="36" r="2.5"/><path class="bst0" d="M34 43l.5 2.5h3L38 43l1.5-.6 2.2 1.4 2.1-2.1-1.4-2.2.6-1.5 2.5-.5v-3L43 34l-.6-1.5 1.4-2.2-2.1-2.1-2.2 1.4L38 29l-.5-2.5h-3L34 29l-1.5.6-2.2-1.4-2.1 2.1 1.4 2.2L29 34l-2.5.5v3l2.5.5.6 1.5-1.4 2.2 2.1 2.1 2.2-1.4zM64.2 18.5h4.3v-14h-18v14h4.3"/><path class="bst0" d="M62.5 13.5l-3-3-3 3M59.5 10.5v10M50.5 8.5h18"/><circle class="bst5" cx="52.5" cy="6.5" r=".6"/><circle class="bst5" cx="54.5" cy="6.5" r=".6"/><path class="bst3" d="M29.5 103.5"/><path class="bst1" d="M74.5 28.5h19v15h-19zM74.5 76.5h19v15h-19z"/><path class="bst1" d="M93.5 41.5l-4.5-4-5 2-5-5-4.5 5"/><circle class="bst1" cx="86.5" cy="33.5" r="2"/><path class="bst1" d="M93.5 65.5h-5M84.5 65.5h-10M93.5 59.5h-12M93.5 53.5h-2M74.5 53.5h13M74.5 59.5h3"/><circle class="bst1" cx="86.5" cy="65.5" r="2"/><circle class="bst1" cx="89.5" cy="53.5" r="2"/><circle class="bst1" cx="79.5" cy="59.5" r="2"/><path class="bst1" d="M77.5 79.5h13M77.5 82.5h10M77.5 85.5h13M77.5 88.5h10M128.5 41.5v3h11v-14h-4"/><path class="bst1" d="M124.5 27.5h11v14h-11zM128.5 65.5v3h11v-14h-4"/><path class="bst6" d="M124.5 51.5h11v14h-11z"/><circle class="bst0" cx="59.5" cy="131.5" r="8"/><path class="bst1" d="M93.5 108s-4.3 4.5-9.5 4.5-9.5-4.5-9.5-4.5 4.3-4.5 9.5-4.5 9.5 4.5 9.5 4.5z"/><circle class="bst7" cx="84" cy="108" r="2.5"/><path class="bst1" d="M115.5 134.5v5h-15v-15h5M115.5 129.5v-5h-5M115.5 124.5l-11 11M77.5 135.5l5-5 5 2 4-6"/><path class="bst1" d="M93.5 139.5h-19v-15M100.5 11.5h14M107.5 4.5v14M114.5 92.5h-13v-17h9l4 4z"/><path class="bst1" d="M114.5 79.5h-4v-4M104.5 82.5h7M104.5 79.5h3M104.5 85.5h7M104.5 88.5h7M114.5 116.5h-13M101.5 99.5h9l4 4"/><path class="bst1" d="M114.5 103.5h-4v-4M104.5 106.5h7M104.5 103.5h3M104.5 109.5h7M104.5 112.5h7M101.5 53.5l13 13M114.5 53.5l-13 13"/><circle class="bst7" cx="108" cy="36" r="2.5"/><path class="bst1" d="M106 43l.5 2.5h3l.5-2.5 1.5-.6 2.2 1.4 2.1-2.1-1.4-2.2.6-1.5 2.5-.5v-3L115 34l-.6-1.5 1.4-2.2-2.1-2.1-2.2 1.4-1.5-.6-.5-2.5h-3L106 29l-1.5.6-2.2-1.4-2.1 2.1 1.4 2.2-.6 1.5-2.5.5v3l2.5.5.6 1.5-1.4 2.2 2.1 2.1 2.2-1.4zM136.2 18.5h4.3v-14h-18v14h4.3"/><path class="bst1" d="M134.5 13.5l-3-3-3 3M131.5 10.5v10M122.5 8.5h18"/><circle class="bst8" cx="124.5" cy="6.5" r=".6"/><circle class="bst8" cx="126.5" cy="6.5" r=".6"/><path class="bst7" d="M101.5 103.5"/><path class="bst1" d="M77.5 7.5h13v4h-13zM77.5 14.5h13M77.5 16.5h9"/><path class="bst0" d="M2.5 4.5h19v15h-19z"/><path class="bst0" d="M5.5 7.5h13v4h-13zM5.5 14.5h13M5.5 16.5h9M55.5 131.5h8M7.5 203.5h8"/><circle class="bst1" cx="131.5" cy="83.5" r="8"/><circle class="bst1" cx="131.5" cy="107.5" r="8"/><path class="bst1" d="M126.5 108.5l3 3 7-7"/><circle class="bst1" cx="131.5" cy="131.5" r="8"/><path class="bst1" d="M127.5 131.5h8"/><path class="bst9" d="M146.5 4.5h19v15h-19zM146.5 28.5h19v15h-19zM146.5 76.5h19v15h-19z"/><path class="bst9" d="M165.5 41.5l-4.5-4-5 2-5-5-4.5 5"/><circle class="bst9" cx="158.5" cy="33.5" r="2"/><path class="bst9" d="M165.5 65.5h-5M156.5 65.5h-10M165.5 59.5h-12M165.5 53.5h-2M146.5 53.5h13M146.5 59.5h3"/><circle class="bst9" cx="158.5" cy="65.5" r="2"/><circle class="bst9" cx="161.5" cy="53.5" r="2"/><circle class="bst9" cx="151.5" cy="59.5" r="2"/><path class="bst9" d="M149.5 79.5h13M149.5 82.5h10M149.5 85.5h13M149.5 88.5h10M200.5 41.5v3h11v-14h-4"/><path class="bst9" d="M196.5 27.5h11v14h-11zM200.5 65.5v3h11v-14h-4"/><path class="bst10" d="M196.5 51.5h11v14h-11z"/><path class="bst9" d="M165.5 108s-4.3 4.5-9.5 4.5-9.5-4.5-9.5-4.5 4.3-4.5 9.5-4.5 9.5 4.5 9.5 4.5z"/><circle class="bst11" cx="156" cy="108" r="2.5"/><path class="bst9" d="M187.5 134.5v5h-15v-15h5M187.5 129.5v-5h-5M187.5 124.5l-11 11M149.5 135.5l5-5 5 2 4-6"/><path class="bst9" d="M165.5 139.5h-19v-15M172.5 11.5h14M179.5 4.5v14M186.5 92.5h-13v-17h9l4 4z"/><path class="bst9" d="M186.5 79.5h-4v-4M176.5 82.5h7M176.5 79.5h3M176.5 85.5h7M176.5 88.5h7M186.5 116.5h-13M173.5 99.5h9l4 4"/><path class="bst9" d="M186.5 103.5h-4v-4M176.5 106.5h7M176.5 103.5h3M176.5 109.5h7M176.5 112.5h7M173.5 53.5l13 13M186.5 53.5l-13 13"/><circle class="bst11" cx="180" cy="36" r="2.5"/><path class="bst9" d="M178 43l.5 2.5h3l.5-2.5 1.5-.6 2.2 1.4 2.1-2.1-1.4-2.2.6-1.5 2.5-.5v-3L187 34l-.6-1.5 1.4-2.2-2.1-2.1-2.2 1.4-1.5-.6-.5-2.5h-3L178 29l-1.5.6-2.2-1.4-2.1 2.1 1.4 2.2-.6 1.5-2.5.5v3l2.5.5.6 1.5-1.4 2.2 2.1 2.1 2.2-1.4zM208.2 18.5h4.3v-14h-18v14h4.3"/><path class="bst9" d="M206.5 13.5l-3-3-3 3M203.5 10.5v10M194.5 8.5h18"/><circle class="bst12" cx="196.5" cy="6.5" r=".6"/><circle class="bst12" cx="198.5" cy="6.5" r=".6"/><path class="bst11" d="M173.5 103.5"/><path class="bst9" d="M149.5 7.5h13v4h-13zM149.5 14.5h13M149.5 16.5h9"/><circle class="bst9" cx="203.5" cy="83.5" r="8"/><circle class="bst9" cx="203.5" cy="107.5" r="8"/><path class="bst9" d="M198.5 108.5l3 3 7-7"/><circle class="bst9" cx="203.5" cy="131.5" r="8"/><path class="bst9" d="M199.5 131.5h8"/><path class="bst13" d="M218.5 4.5h19v15h-19zM218.5 28.5h19v15h-19zM218.5 76.5h19v15h-19z"/><path class="bst13" d="M237.5 41.5l-4.5-4-5 2-5-5-4.5 5"/><circle class="bst13" cx="230.5" cy="33.5" r="2"/><path class="bst13" d="M237.5 65.5h-5M228.5 65.5h-10M237.5 59.5h-12M237.5 53.5h-2M218.5 53.5h13M218.5 59.5h3"/><circle class="bst13" cx="230.5" cy="65.5" r="2"/><circle class="bst13" cx="233.5" cy="53.5" r="2"/><circle class="bst13" cx="223.5" cy="59.5" r="2"/><path class="bst13" d="M221.5 79.5h13M221.5 82.5h10M221.5 85.5h13M221.5 88.5h10M272.5 41.5v3h11v-14h-4"/><path class="bst13" d="M268.5 27.5h11v14h-11zM272.5 65.5v3h11v-14h-4"/><path class="bst14" d="M268.5 51.5h11v14h-11z"/><path class="bst13" d="M237.5 108s-4.3 4.5-9.5 4.5-9.5-4.5-9.5-4.5 4.3-4.5 9.5-4.5 9.5 4.5 9.5 4.5z"/><circle class="bst15" cx="228" cy="108" r="2.5"/><path class="bst13" d="M259.5 134.5v5h-15v-15h5M259.5 129.5v-5h-5M259.5 124.5l-11 11M221.5 135.5l5-5 5 2 4-6"/><path class="bst13" d="M237.5 139.5h-19v-15M244.5 11.5h14M251.5 4.5v14M258.5 92.5h-13v-17h9l4 4z"/><path class="bst13" d="M258.5 79.5h-4v-4M248.5 82.5h7M248.5 79.5h3M248.5 85.5h7M248.5 88.5h7M258.5 116.5h-13M245.5 99.5h9l4 4"/><path class="bst13" d="M258.5 103.5h-4v-4M248.5 106.5h7M248.5 103.5h3M248.5 109.5h7M248.5 112.5h7M245.5 53.5l13 13M258.5 53.5l-13 13"/><circle class="bst15" cx="252" cy="36" r="2.5"/><path class="bst13" d="M250 43l.5 2.5h3l.5-2.5 1.5-.6 2.2 1.4 2.1-2.1-1.4-2.2.6-1.5 2.5-.5v-3L259 34l-.6-1.5 1.4-2.2-2.1-2.1-2.2 1.4-1.5-.6-.5-2.5h-3L250 29l-1.5.6-2.2-1.4-2.1 2.1 1.4 2.2-.6 1.5-2.5.5v3l2.5.5.6 1.5-1.4 2.2 2.1 2.1 2.2-1.4zM280.2 18.5h4.3v-14h-18v14h4.3"/><path class="bst13" d="M278.5 13.5l-3-3-3 3M275.5 10.5v10M266.5 8.5h18"/><circle class="bst16" cx="268.5" cy="6.5" r=".6"/><circle class="bst16" cx="270.5" cy="6.5" r=".6"/><path class="bst15" d="M245.5 103.5"/><path class="bst13" d="M221.5 7.5h13v4h-13zM221.5 14.5h13M221.5 16.5h9"/><g><circle class="bst13" cx="275.5" cy="83.5" r="8"/></g><circle class="bst13" cx="275.5" cy="107.5" r="8"/><path class="bst13" d="M270.5 108.5l3 3 7-7"/><g><circle class="bst13" cx="275.5" cy="131.5" r="8"/></g><path class="bst13" d="M271.5 131.5h8"/><g><path class="bst0" d="M19.5 208.5c0 1.6-1.4 3-3 3h-10c-1.7 0-3-1.4-3-3v-10c0-1.6 1.3-3 3-3h10c1.6 0 3 1.4 3 3v10z"/></g><g><path class="bst0" d="M19.5 184.5c0 1.6-1.4 3-3 3h-10c-1.7 0-3-1.4-3-3v-10c0-1.6 1.3-3 3-3h10c1.6 0 3 1.4 3 3v10z"/></g><g><path class="bst0" d="M19.5 160.5c0 1.6-1.4 3-3 3h-10c-1.7 0-3-1.4-3-3v-10c0-1.6 1.3-3 3-3h10c1.6 0 3 1.4 3 3v10z"/></g><path class="bst0" d="M34.5 151.5l5 4.5-5 4.5M40.5 178.5l-4.5 5-4.5-5"/><path class="bst1" d="M78.5 180.5l3 3 7-7M79.5 203.5h8"/><g><path class="bst1" d="M91.5 208.5c0 1.6-1.3 3-3 3h-10c-1.7 0-3-1.4-3-3v-10c0-1.6 1.3-3 3-3h10c1.7 0 3 1.4 3 3v10z"/></g><g><path class="bst1" d="M91.5 184.5c0 1.6-1.3 3-3 3h-10c-1.7 0-3-1.4-3-3v-10c0-1.6 1.3-3 3-3h10c1.7 0 3 1.4 3 3v10z"/></g><g><path class="bst1" d="M91.5 160.5c0 1.6-1.3 3-3 3h-10c-1.7 0-3-1.4-3-3v-10c0-1.6 1.3-3 3-3h10c1.7 0 3 1.4 3 3v10z"/></g><path class="bst1" d="M106.5 151.5l5 4.5-5 4.5M112.5 178.5l-4.5 5-4.5-5"/><path class="bst9" d="M150.5 180.5l3 3 7-7M151.5 203.5h8"/><g><path class="bst9" d="M163.5 208.5c0 1.6-1.4 3-3 3h-10c-1.6 0-3-1.4-3-3v-10c0-1.6 1.4-3 3-3h10c1.6 0 3 1.4 3 3v10z"/></g><g><path class="bst9" d="M163.5 184.5c0 1.6-1.4 3-3 3h-10c-1.6 0-3-1.4-3-3v-10c0-1.6 1.4-3 3-3h10c1.6 0 3 1.4 3 3v10z"/></g><g><path class="bst9" d="M163.5 160.5c0 1.6-1.4 3-3 3h-10c-1.6 0-3-1.4-3-3v-10c0-1.6 1.4-3 3-3h10c1.6 0 3 1.4 3 3v10z"/></g><path class="bst9" d="M178.5 151.5l5 4.5-5 4.5M184.5 178.5l-4.5 5-4.5-5"/><path class="bst13" d="M222.5 180.5l3 3 7-7M223.5 203.5h8"/><g><path class="bst13" d="M235.5 208.5c0 1.6-1.4 3-3 3h-10c-1.6 0-3-1.4-3-3v-10c0-1.6 1.4-3 3-3h10c1.6 0 3 1.4 3 3v10z"/></g><g><path class="bst13" d="M235.5 184.5c0 1.6-1.4 3-3 3h-10c-1.6 0-3-1.4-3-3v-10c0-1.6 1.4-3 3-3h10c1.6 0 3 1.4 3 3v10z"/></g><g><path class="bst13" d="M235.5 160.5c0 1.6-1.4 3-3 3h-10c-1.6 0-3-1.4-3-3v-10c0-1.6 1.4-3 3-3h10c1.6 0 3 1.4 3 3v10z"/></g><path class="bst13" d="M250.5 151.5l5 4.5-5 4.5M256.5 178.5l-4.5 5-4.5-5"/></symbol><symbol id="logo" viewBox="0 0 145 30"><style>.cst0{fill:#fff}</style><path class="cst0" d="M16.1 21.9c.2 0 .5-.1.6-.2l3.1-3.1 3.1-3.1 5.4-5.4c2.3-2.3 2.3-6.1 0-8.4-2.3-2.3-6.1-2.3-8.4 0L8.3 13.3c-.2.2-.3.4-.2.6l.1 6.7L5 23.8c-2.1-2.4-3.3-5.5-3.3-8.7 0-3.5 1.4-6.8 3.9-9.3C8 3.3 11.3 2 14.9 2c.5 0 .8-.4.8-.8s-.4-.8-.8-.8c-4 0-7.7 1.5-10.5 4.4C1.5 7.4 0 11.2 0 15.1c0 4 1.5 7.7 4.4 10.5 2.8 2.8 6.5 4.4 10.5 4.4s7.7-1.5 10.5-4.4c2.8-2.8 4.4-6.5 4.4-10.5 0-.5-.4-.8-.8-.8-.5 0-.8.4-.8.8 0 3.5-1.4 6.8-3.9 9.3s-5.8 3.9-9.3 3.9c-3.2 0-6.3-1.2-8.7-3.3l3.2-3.2 6.6.1zm-.3-1.7H11l1.5-1.5 4.7.1-1.4 1.4zm-.2-4.6l4.7.1-1.5 1.5-4.7-.2 1.5-1.4zm-5.8-1.4L21.1 2.9c1.7-1.7 4.3-1.7 6 0 .8.8 1.2 1.9 1.2 3s-.4 2.2-1.2 3L22 14l-4.7-.1 4-4c.3-.3.3-.9 0-1.2-.3-.3-.9-.3-1.2 0l-8.5 8.5L9.8 19v-4.8zM49.1 6.1v2h-8.7v6.3h7.4v2h-7.4v7.8h-2.5V6.1h11.2zM56.1 11.2c.8 0 1.5.1 2.1.4.6.3 1.2.6 1.7 1.1s.8 1.1 1.1 1.8c.3.7.4 1.5.4 2.4 0 .4 0 .6-.1.7-.1.1-.2.2-.4.2h-8.5c0 .8.1 1.5.3 2.1s.5 1.1.8 1.5.8.7 1.3.9c.5.2 1 .3 1.6.3.6 0 1.1-.1 1.5-.2.4-.1.8-.3 1.1-.4.3-.2.5-.3.7-.4.2-.1.4-.2.5-.2.2 0 .3.1.4.2l.6.8c-.3.3-.6.6-1 .9-.4.2-.8.5-1.2.6-.4.2-.9.3-1.4.4-.5.1-.9.1-1.4.1-.9 0-1.7-.1-2.4-.4-.7-.3-1.4-.7-1.9-1.3s-1-1.3-1.3-2.1c-.3-.9-.5-1.8-.5-2.9 0-.9.1-1.7.4-2.5.3-.8.7-1.4 1.2-2 .5-.6 1.1-1 1.9-1.3.7-.5 1.5-.7 2.5-.7zm0 1.7c-1.1 0-1.9.3-2.6.9-.6.6-1 1.5-1.2 2.6h7c0-.5-.1-1-.2-1.4-.1-.4-.4-.8-.6-1.1-.3-.3-.6-.6-1-.7-.4-.3-.9-.3-1.4-.3zM73.2 24.2c-.3 0-.5-.2-.6-.5l-.2-1.6c-.5.7-1.2 1.2-1.9 1.6-.7.4-1.5.6-2.4.6-.7 0-1.4-.1-2-.4-.6-.3-1.1-.7-1.5-1.2-.4-.5-.7-1.2-1-2s-.3-1.8-.3-2.8c0-.9.1-1.8.4-2.6.3-.8.6-1.5 1.1-2.1.5-.6 1.1-1.1 1.7-1.4.7-.3 1.5-.5 2.3-.5.8 0 1.5.1 2 .4.6.3 1.1.6 1.5 1.1V5.6h2.2v18.6h-1.3zm-4.3-1.6c.7 0 1.4-.2 1.9-.5.6-.3 1.1-.8 1.5-1.4v-6.2c-.4-.6-.9-.9-1.4-1.2-.5-.2-1-.3-1.6-.3-1.2 0-2.1.4-2.8 1.3-.6.9-1 2.1-1 3.6 0 .8.1 1.5.2 2.1.1.6.4 1.1.6 1.5.3.4.6.7 1 .8.6.2 1.1.3 1.6.3zM83.4 11.2c.8 0 1.5.1 2.1.4.6.3 1.2.6 1.7 1.1s.8 1.1 1.1 1.8c.3.7.4 1.5.4 2.4 0 .4 0 .6-.1.7-.1.1-.2.2-.4.2h-8.5c0 .8.1 1.5.3 2.1s.5 1.1.8 1.5c.4.4.8.7 1.3.9.5.2 1 .3 1.6.3.6 0 1.1-.1 1.5-.2.4-.1.8-.3 1.1-.4.3-.2.5-.3.7-.4s.4-.2.5-.2c.2 0 .3.1.4.2l.6.8c-.3.3-.6.6-1 .9-.4.2-.8.5-1.2.6-.4.2-.9.3-1.4.4-.5.1-.9.1-1.4.1-.9 0-1.7-.1-2.4-.4-.7-.3-1.4-.7-1.9-1.3-.5-.6-1-1.3-1.3-2.1-.3-.9-.5-1.8-.5-2.9 0-.9.1-1.7.4-2.5.3-.8.7-1.4 1.2-2 .5-.6 1.1-1 1.9-1.3.8-.5 1.6-.7 2.5-.7zm.1 1.7c-1.1 0-1.9.3-2.6.9-.6.6-1 1.5-1.2 2.6h7c0-.5-.1-1-.2-1.4-.1-.4-.4-.8-.6-1.1-.3-.3-.6-.6-1-.7-.5-.3-.9-.3-1.4-.3zM91.6 24.2V11.4h1.3c.2 0 .4 0 .5.1.1.1.2.3.2.5l.2 2c.4-.9 1-1.6 1.6-2.1.6-.5 1.4-.8 2.3-.8.4 0 .7 0 1 .1.3.1.6.2.8.3l-.3 1.7c-.1.2-.2.3-.4.3-.1 0-.3 0-.5-.1s-.6-.1-1-.1c-.8 0-1.4.2-2 .7-.5.5-1 1.1-1.3 2v8.2h-2.4zM110.7 24.2h-1c-.2 0-.4 0-.5-.1-.1-.1-.2-.2-.3-.4l-.3-1.2c-.3.3-.7.6-1 .8-.3.2-.7.4-1 .6-.4.2-.7.3-1.1.4-.4.1-.8.1-1.3.1s-1-.1-1.4-.2c-.4-.1-.8-.3-1.1-.6-.3-.3-.6-.6-.8-1.1-.2-.4-.3-.9-.3-1.5 0-.5.1-1 .4-1.5.3-.5.7-.9 1.3-1.2.6-.4 1.4-.7 2.4-.9 1-.2 2.2-.3 3.7-.3v-1c0-1-.2-1.8-.6-2.3-.4-.5-1.1-.8-1.9-.8-.5 0-1 .1-1.4.2-.4.1-.7.3-1 .5s-.5.3-.7.5c-.2.1-.4.2-.6.2-.2 0-.3 0-.4-.1l-.3-.3-.4-.7c.7-.7 1.5-1.2 2.3-1.5.8-.3 1.7-.5 2.7-.5.7 0 1.4.1 1.9.4.6.2 1 .6 1.4 1 .4.4.7.9.9 1.5.2.6.3 1.3.3 2v8zm-5.8-1.4c.4 0 .8 0 1.1-.1l.9-.3c.3-.1.6-.3.8-.5.3-.2.5-.5.8-.7v-2.6c-1 0-1.9.1-2.6.2-.7.1-1.3.3-1.8.5s-.8.5-1 .7c-.2.3-.3.6-.3 1 0 .3.1.6.2.9.1.2.3.4.4.6.2.2.4.3.7.3h.8zM116.6 5.6v18.6h-2.2V5.6h2.2zM123.6 7.4c0 .2 0 .4-.1.6-.1.2-.2.4-.4.5-.1.1-.3.3-.5.3-.2.1-.4.2-.6.2s-.4 0-.6-.1c-.2-.1-.4-.2-.5-.3-.1-.1-.3-.3-.3-.5-.1-.2-.1-.4-.1-.6 0-.2 0-.4.1-.6.1-.2.2-.4.3-.5.1-.1.3-.3.5-.3.2-.1.4-.1.6-.1s.4 0 .6.1c.2.1.4.2.5.3.1.1.3.3.4.5 0 .1.1.3.1.5zm-.5 4v12.8h-2.2V11.4h2.2zM134.4 13.5c-.1.2-.3.3-.5.3-.1 0-.3 0-.4-.1l-.6-.3c-.2-.1-.5-.2-.8-.3-.3-.1-.7-.1-1.1-.1-.4 0-.7 0-1 .1-.3.1-.6.2-.8.4-.2.2-.4.4-.5.6-.1.2-.2.5-.2.7 0 .3.1.6.3.8.2.2.4.4.8.6.3.2.7.3 1.1.4.4.1.8.3 1.2.4.4.1.8.3 1.2.5.4.2.7.4 1.1.6.3.3.6.6.8.9.2.4.3.8.3 1.3 0 .6-.1 1.1-.3 1.6-.2.5-.5.9-.9 1.3s-.9.7-1.5.9c-.6.2-1.3.3-2.1.3-.9 0-1.7-.1-2.4-.4-.7-.3-1.3-.7-1.8-1.1l.5-.9c.1-.1.1-.2.2-.3.1-.1.2-.1.4-.1s.3.1.5.2.4.2.6.4c.2.1.5.3.9.4s.8.2 1.3.2c.4 0 .8-.1 1.2-.2.3-.1.6-.3.8-.5.2-.2.4-.4.5-.7s.2-.5.2-.8c0-.4-.1-.6-.3-.9-.2-.2-.4-.4-.8-.6-.3-.2-.7-.3-1.1-.4-.4-.1-.8-.3-1.2-.4-.4-.1-.8-.3-1.2-.5-.4-.2-.8-.4-1.1-.7-.3-.3-.6-.6-.8-1-.2-.4-.3-.8-.3-1.4 0-.5.1-1 .3-1.4.2-.5.5-.8.9-1.2.4-.3.9-.6 1.4-.8.6-.2 1.2-.3 1.9-.3.8 0 1.6.1 2.3.4s1.2.6 1.7 1.1l-.7 1zM141.9 24.4c-1 0-1.8-.3-2.3-.8-.5-.6-.8-1.4-.8-2.4v-7.8h-1.5c-.1 0-.2 0-.3-.1-.1-.1-.1-.2-.1-.4V12l2.1-.3.5-4c0-.1.1-.2.2-.3.1-.1.2-.1.4-.1h1.1v4.4h3.7v1.6H141V21c0 .5.1.9.4 1.2.3.3.6.4 1 .4.2 0 .4 0 .6-.1.2-.1.3-.1.4-.2.1-.1.2-.1.3-.2.2-.1.3-.1.3-.1.1 0 .2.1.3.2l.7 1.1c-.4.4-.9.6-1.4.9-.6.1-1.1.2-1.7.2z"/></symbol><symbol id="maintain" viewBox="0 0 150 150"><style>.dst0{fill:#f1f2f2}.st1{fill:#bd993a}.st2{fill:#ffcc4e}.st3{fill:#2d4447}.dst4{fill:#bcbec0}.dst5{fill:#808285}.dst6{fill:#84c98b}.dst7{fill:#619869}.st8{fill:#04c1e9}.st9{fill:#0592b1}</style><g id="dwheel"><circle class="dst0" cx="75" cy="75" r="75"/><path class="dst4" d="M75 42.5v-10c-2.5 0-4.6 2.1-4.6 4.6v5.8c-5.5.8-10.6 3-14.9 6.2L51.4 45c-1.8-1.8-4.7-1.8-6.5 0-1.8 1.8-1.8 4.7 0 6.5l4.1 4.1c-3.2 4.3-5.4 9.3-6.2 14.9H37c-2.5 0-4.6 2.1-4.6 4.6s2.1 4.6 4.6 4.6h5.8c.8 5.5 3 10.6 6.2 14.9l-4.1 4.1c-1.8 1.8-1.8 4.7 0 6.5 1.8 1.8 4.7 1.8 6.5 0l4.1-4.1c4.3 3.2 9.3 5.4 14.9 6.2v5.8c0 2.5 2.1 4.6 4.6 4.6V42.5z"/><path class="dst5" d="M112.9 70.4h-5.8c-.8-5.5-3-10.6-6.2-14.9l4.1-4.1c.9-.9 1.3-2.1 1.3-3.3 0-1.2-.4-2.4-1.3-3.3-1.8-1.8-4.7-1.8-6.5 0l-4 4.2c-4.3-3.2-9.3-5.4-14.9-6.2V37c0-2.5-2.1-4.6-4.6-4.6v85c2.5 0 4.6-2.1 4.6-4.6V107c5.5-.8 10.6-3 14.9-6.2l4.1 4.1c1.8 1.8 4.7 1.8 6.5 0 .9-.9 1.3-2.1 1.3-3.3 0-1.2-.4-2.4-1.3-3.3l-4.1-4.1c3.2-4.3 5.4-9.3 6.2-14.9h5.8c2.5 0 4.6-2.1 4.6-4.6s-2.2-4.3-4.7-4.3z"/><path class="dst6" d="M75 95.6c-11.4 0-20.6-9.2-20.6-20.6S63.6 54.4 75 54.4v41.2z"/><path class="dst7" d="M75 54.4c11.4 0 20.6 9.2 20.6 20.6S86.4 95.6 75 95.6V54.4z"/><circle class="dst0" cx="75" cy="75" r="12.6"/></g></symbol><symbol id="secure" viewBox="0 0 150 150"><style>.est0{fill:#f1f2f2}.est1{fill:#bd993a}.est2{fill:#ffcc4e}.est3{fill:#2d4447}.est4{fill:#bcbec0}.est5{fill:#808285}.st6{fill:#84c98b}.st7{fill:#619869}.st8{fill:#04c1e9}.st9{fill:#0592b1}</style><circle class="est0" cx="75" cy="75" r="75"/><g id="eshackle"><path class="est4" d="M51.5 58.5v7.4h8.6v-7.4c0-8.2 6.7-14.9 14.9-14.9V35c-13 0-23.5 10.5-23.5 23.5z"/><path class="est5" d="M89.9 58.5v7.4h8.6v-7.4C98.5 45.5 88 35 75 35v8.6c8.2 0 14.9 6.7 14.9 14.9z"/></g><g id="ebody"><path class="est1" d="M106.5 110.7V70.2c0-2.4-1.9-4.3-4.3-4.3H75V115h27.2c2.3 0 4.3-1.9 4.3-4.3z"/><path class="est2" d="M47.8 65.9c-2.4 0-4.3 1.9-4.3 4.3v40.5c0 2.4 1.9 4.3 4.3 4.3H75V65.9H47.8z"/></g><path class="est3" d="M81.5 84c0-3.6-2.9-6.5-6.5-6.5s-6.5 2.9-6.5 6.5c0 2.5 1.4 4.6 3.5 5.7l-3.1 14.4h12.2L78 89.7c2.1-1.1 3.5-3.2 3.5-5.7z" id="ekeyhole"/></symbol><symbol style="position:absolute" viewBox="0 0 0 0" id="sprite"><symbol id="fcustom" viewBox="0 0 150 150"><style>.ast0{fill:#f1f2f2}.ast1{fill:#bd993a}.ast2{fill:#ffcc4e}.st3{fill:#2d4447}.ast4{fill:#bcbec0}.st5{fill:#808285}.ast6{fill:#84c98b}.ast7{fill:#619869}.ast8{fill:#04c1e9}.ast9{fill:#0592b1}</style><circle class="fast0" cx="75" cy="75" r="75"/><path class="fast4" d="M113.4 57.1H36.6c-2.2 0-4-1.8-4-4s1.8-4 4-4h76.8c2.2 0 4 1.8 4 4s-1.8 4-4 4zm0 21.9H36.6c-2.2 0-4-1.8-4-4s1.8-4 4-4h76.8c2.2 0 4 1.8 4 4s-1.8 4-4 4zm0 21.9H36.6c-2.2 0-4-1.8-4-4s1.8-4 4-4h76.8c2.2 0 4 1.8 4 4s-1.8 4-4 4z"/><g id="fatop-slider"><path class="fast2" d="M50.8 60.4c-4 0-7.3-3.3-7.3-7.3s3.3-7.3 7.3-7.3v14.6z"/><path class="fast1" d="M50.8 45.8c4 0 7.3 3.3 7.3 7.3s-3.3 7.3-7.3 7.3V45.8z"/></g><g id="famid-slider"><path class="fast6" d="M98.7 82.3c-4 0-7.3-3.3-7.3-7.3s3.3-7.3 7.3-7.3v14.6z"/><path class="fast7" d="M98.7 67.7c4 0 7.3 3.3 7.3 7.3s-3.3 7.3-7.3 7.3V67.7z"/></g><g id="fabottom-slider"><path class="fast8" d="M64.6 104.2c-4 0-7.3-3.3-7.3-7.3s3.3-7.3 7.3-7.3v14.6z"/><path class="fast9" d="M64.6 89.6c4 0 7.3 3.3 7.3 7.3s-3.3 7.3-7.3 7.3V89.6z"/></g></symbol><symbol id="ficons" viewBox="0 0 288 216"><style>.bst0{fill:none;stroke:#414142;stroke-linecap:round;stroke-linejoin:round;stroke-miterlimit:10}.bst1{fill:none;stroke:#0d79a6}.bst1,.bst2,.bst3,.bst4{stroke-linecap:round;stroke-linejoin:round;stroke-miterlimit:10}.bst2{stroke:#414142;fill:#414142}.bst3,.bst4{fill:none}.bst3{stroke-width:1.25;stroke:#414142}.bst4{stroke:#525656}.bst5{fill:#414142}.bst6,.bst7{fill:#0d79a6;stroke:#0d79a6;stroke-linecap:round;stroke-linejoin:round;stroke-miterlimit:10}.bst7{fill:none;stroke-width:1.25}.bst8{fill:#0d79a6}.bst10,.bst11,.bst9{stroke:#949494;stroke-linecap:round;stroke-linejoin:round;stroke-miterlimit:10}.bst9{fill:none}.bst10{fill:#949494}.bst11{fill:none;stroke-width:1.25}.bst12{fill:#949494}.bst13{fill:none}.bst13,.bst14,.bst15{stroke:#fff;stroke-linecap:round;stroke-linejoin:round;stroke-miterlimit:10}.bst14{fill:#fff}.bst15{fill:none;stroke-width:1.25}.bst16{fill:#fff}</style><path class="fbst0" d="M2.5 28.5h19v15h-19z"/><path class="fbst1" d="M74.5 4.5h19v15h-19z"/><path class="fbst0" d="M2.5 76.5h19v15h-19zm19-35l-4.5-4-5 2-5-5-4.5 5"/><circle class="fbst0" cx="14.5" cy="33.5" r="2"/><path class="fbst0" d="M21.5 65.5h-5m-4 0h-10m19-6h-12m12-6h-2m-17 0h13m-13 6h3"/><circle class="fbst0" cx="14.5" cy="65.5" r="2"/><circle class="fbst0" cx="17.5" cy="53.5" r="2"/><circle class="fbst0" cx="7.5" cy="59.5" r="2"/><path class="fbst0" d="M5.5 79.5h13m-13 3h10m-10 3h13m-13 3h10m41-47v3h11v-14h-4"/><path class="fbst0" d="M52.5 27.5h11v14h-11zm4 38v3h11v-14h-4"/><path class="fbst2" d="M52.5 51.5h11v14h-11z"/><circle class="fbst0" cx="59.5" cy="83.5" r="8"/><circle class="fbst0" cx="59.5" cy="107.5" r="8"/><path class="fbst0" d="M54.5 108.5l3 3 7-7m-58 76l3 3 7-7m5-68.5s-4.3 4.5-9.5 4.5-9.5-4.5-9.5-4.5 4.3-4.5 9.5-4.5 9.5 4.5 9.5 4.5z"/><circle class="fbst3" cx="12" cy="108" r="2.5"/><path class="fbst0" d="M43.5 134.5v5h-15v-15h5m10 5v-5h-5m5 0l-11 11"/><path class="fbst4" d="M5.5 135.5l5-5 5 2 4-6"/><path class="fbst4" d="M21.5 139.5h-19v-15"/><path class="fbst0" d="M28.5 11.5h14m-7-7v14m7 74h-13v-17h9l4 4z"/><path class="fbst0" d="M42.5 79.5h-4v-4m-6 7h7m-7-3h3m-3 6h7m-7 3h7m3 28h-13m0-17h9l4 4"/><path class="fbst0" d="M42.5 103.5h-4v-4m-6 7h7m-7-3h3m-3 6h7m-7 3h7m-10-59l13 13m0-13l-13 13"/><circle class="fbst3" cx="36" cy="36" r="2.5"/><path class="fbst0" d="M34 43l.5 2.5h3L38 43l1.5-.6 2.2 1.4 2.1-2.1-1.4-2.2.6-1.5 2.5-.5v-3L43 34l-.6-1.5 1.4-2.2-2.1-2.1-2.2 1.4L38 29l-.5-2.5h-3L34 29l-1.5.6-2.2-1.4-2.1 2.1 1.4 2.2L29 34l-2.5.5v3l2.5.5.6 1.5-1.4 2.2 2.1 2.1 2.2-1.4zm30.2-24.5h4.3v-14h-18v14h4.3"/><path class="fbst0" d="M62.5 13.5l-3-3-3 3m3-3v10m-9-12h18"/><circle class="fbst5" cx="52.5" cy="6.5" r=".6"/><circle class="fbst5" cx="54.5" cy="6.5" r=".6"/><path class="fbst1" d="M74.5 28.5h19v15h-19zm0 48h19v15h-19z"/><path class="fbst1" d="M93.5 41.5l-4.5-4-5 2-5-5-4.5 5"/><circle class="fbst1" cx="86.5" cy="33.5" r="2"/><path class="fbst1" d="M93.5 65.5h-5m-4 0h-10m19-6h-12m12-6h-2m-17 0h13m-13 6h3"/><circle class="fbst1" cx="86.5" cy="65.5" r="2"/><circle class="fbst1" cx="89.5" cy="53.5" r="2"/><circle class="fbst1" cx="79.5" cy="59.5" r="2"/><path class="fbst1" d="M77.5 79.5h13m-13 3h10m-10 3h13m-13 3h10m41-47v3h11v-14h-4"/><path class="fbst1" d="M124.5 27.5h11v14h-11zm4 38v3h11v-14h-4"/><path class="fbst6" d="M124.5 51.5h11v14h-11z"/><circle class="fbst0" cx="59.5" cy="131.5" r="8"/><path class="fbst1" d="M93.5 108s-4.3 4.5-9.5 4.5-9.5-4.5-9.5-4.5 4.3-4.5 9.5-4.5 9.5 4.5 9.5 4.5z"/><circle class="fbst7" cx="84" cy="108" r="2.5"/><path class="fbst1" d="M115.5 134.5v5h-15v-15h5m10 5v-5h-5m5 0l-11 11m-27 0l5-5 5 2 4-6"/><path class="fbst1" d="M93.5 139.5h-19v-15m26-113h14m-7-7v14m7 74h-13v-17h9l4 4z"/><path class="fbst1" d="M114.5 79.5h-4v-4m-6 7h7m-7-3h3m-3 6h7m-7 3h7m3 28h-13m0-17h9l4 4"/><path class="fbst1" d="M114.5 103.5h-4v-4m-6 7h7m-7-3h3m-3 6h7m-7 3h7m-10-59l13 13m0-13l-13 13"/><circle class="fbst7" cx="108" cy="36" r="2.5"/><path class="fbst1" d="M106 43l.5 2.5h3l.5-2.5 1.5-.6 2.2 1.4 2.1-2.1-1.4-2.2.6-1.5 2.5-.5v-3L115 34l-.6-1.5 1.4-2.2-2.1-2.1-2.2 1.4-1.5-.6-.5-2.5h-3L106 29l-1.5.6-2.2-1.4-2.1 2.1 1.4 2.2-.6 1.5-2.5.5v3l2.5.5.6 1.5-1.4 2.2 2.1 2.1 2.2-1.4zm30.2-24.5h4.3v-14h-18v14h4.3"/><path class="fbst1" d="M134.5 13.5l-3-3-3 3m3-3v10m-9-12h18"/><circle class="fbst8" cx="124.5" cy="6.5" r=".6"/><circle class="fbst8" cx="126.5" cy="6.5" r=".6"/><path class="fbst1" d="M77.5 7.5h13v4h-13zm0 7h13m-13 2h9"/><path class="fbst0" d="M2.5 4.5h19v15h-19z"/><path class="fbst0" d="M5.5 7.5h13v4h-13zm0 7h13m-13 2h9m41 115h8m-56 72h8"/><circle class="fbst1" cx="131.5" cy="83.5" r="8"/><circle class="fbst1" cx="131.5" cy="107.5" r="8"/><path class="fbst1" d="M126.5 108.5l3 3 7-7"/><circle class="fbst1" cx="131.5" cy="131.5" r="8"/><path class="fbst1" d="M127.5 131.5h8"/><path class="fbst9" d="M146.5 4.5h19v15h-19zm0 24h19v15h-19zm0 48h19v15h-19z"/><path class="fbst9" d="M165.5 41.5l-4.5-4-5 2-5-5-4.5 5"/><circle class="fbst9" cx="158.5" cy="33.5" r="2"/><path class="fbst9" d="M165.5 65.5h-5m-4 0h-10m19-6h-12m12-6h-2m-17 0h13m-13 6h3"/><circle class="fbst9" cx="158.5" cy="65.5" r="2"/><circle class="fbst9" cx="161.5" cy="53.5" r="2"/><circle class="fbst9" cx="151.5" cy="59.5" r="2"/><path class="fbst9" d="M149.5 79.5h13m-13 3h10m-10 3h13m-13 3h10m41-47v3h11v-14h-4"/><path class="fbst9" d="M196.5 27.5h11v14h-11zm4 38v3h11v-14h-4"/><path class="fbst10" d="M196.5 51.5h11v14h-11z"/><path class="fbst9" d="M165.5 108s-4.3 4.5-9.5 4.5-9.5-4.5-9.5-4.5 4.3-4.5 9.5-4.5 9.5 4.5 9.5 4.5z"/><circle class="fbst11" cx="156" cy="108" r="2.5"/><path class="fbst9" d="M187.5 134.5v5h-15v-15h5m10 5v-5h-5m5 0l-11 11m-27 0l5-5 5 2 4-6"/><path class="fbst9" d="M165.5 139.5h-19v-15m26-113h14m-7-7v14m7 74h-13v-17h9l4 4z"/><path class="fbst9" d="M186.5 79.5h-4v-4m-6 7h7m-7-3h3m-3 6h7m-7 3h7m3 28h-13m0-17h9l4 4"/><path class="fbst9" d="M186.5 103.5h-4v-4m-6 7h7m-7-3h3m-3 6h7m-7 3h7m-10-59l13 13m0-13l-13 13"/><circle class="fbst11" cx="180" cy="36" r="2.5"/><path class="fbst9" d="M178 43l.5 2.5h3l.5-2.5 1.5-.6 2.2 1.4 2.1-2.1-1.4-2.2.6-1.5 2.5-.5v-3L187 34l-.6-1.5 1.4-2.2-2.1-2.1-2.2 1.4-1.5-.6-.5-2.5h-3L178 29l-1.5.6-2.2-1.4-2.1 2.1 1.4 2.2-.6 1.5-2.5.5v3l2.5.5.6 1.5-1.4 2.2 2.1 2.1 2.2-1.4zm30.2-24.5h4.3v-14h-18v14h4.3"/><path class="fbst9" d="M206.5 13.5l-3-3-3 3m3-3v10m-9-12h18"/><circle class="fbst12" cx="196.5" cy="6.5" r=".6"/><circle class="fbst12" cx="198.5" cy="6.5" r=".6"/><path class="fbst9" d="M149.5 7.5h13v4h-13zm0 7h13m-13 2h9"/><circle class="fbst9" cx="203.5" cy="83.5" r="8"/><circle class="fbst9" cx="203.5" cy="107.5" r="8"/><path class="fbst9" d="M198.5 108.5l3 3 7-7"/><circle class="fbst9" cx="203.5" cy="131.5" r="8"/><path class="fbst9" d="M199.5 131.5h8"/><path class="fbst13" d="M218.5 4.5h19v15h-19zm0 24h19v15h-19zm0 48h19v15h-19z"/><path class="fbst13" d="M237.5 41.5l-4.5-4-5 2-5-5-4.5 5"/><circle class="fbst13" cx="230.5" cy="33.5" r="2"/><path class="fbst13" d="M237.5 65.5h-5m-4 0h-10m19-6h-12m12-6h-2m-17 0h13m-13 6h3"/><circle class="fbst13" cx="230.5" cy="65.5" r="2"/><circle class="fbst13" cx="233.5" cy="53.5" r="2"/><circle class="fbst13" cx="223.5" cy="59.5" r="2"/><path class="fbst13" d="M221.5 79.5h13m-13 3h10m-10 3h13m-13 3h10m41-47v3h11v-14h-4"/><path class="fbst13" d="M268.5 27.5h11v14h-11zm4 38v3h11v-14h-4"/><path class="fbst14" d="M268.5 51.5h11v14h-11z"/><path class="fbst13" d="M237.5 108s-4.3 4.5-9.5 4.5-9.5-4.5-9.5-4.5 4.3-4.5 9.5-4.5 9.5 4.5 9.5 4.5z"/><circle class="fbst15" cx="228" cy="108" r="2.5"/><path class="fbst13" d="M259.5 134.5v5h-15v-15h5m10 5v-5h-5m5 0l-11 11m-27 0l5-5 5 2 4-6"/><path class="fbst13" d="M237.5 139.5h-19v-15m26-113h14m-7-7v14m7 74h-13v-17h9l4 4z"/><path class="fbst13" d="M258.5 79.5h-4v-4m-6 7h7m-7-3h3m-3 6h7m-7 3h7m3 28h-13m0-17h9l4 4"/><path class="fbst13" d="M258.5 103.5h-4v-4m-6 7h7m-7-3h3m-3 6h7m-7 3h7m-10-59l13 13m0-13l-13 13"/><circle class="fbst15" cx="252" cy="36" r="2.5"/><path class="fbst13" d="M250 43l.5 2.5h3l.5-2.5 1.5-.6 2.2 1.4 2.1-2.1-1.4-2.2.6-1.5 2.5-.5v-3L259 34l-.6-1.5 1.4-2.2-2.1-2.1-2.2 1.4-1.5-.6-.5-2.5h-3L250 29l-1.5.6-2.2-1.4-2.1 2.1 1.4 2.2-.6 1.5-2.5.5v3l2.5.5.6 1.5-1.4 2.2 2.1 2.1 2.2-1.4zm30.2-24.5h4.3v-14h-18v14h4.3"/><path class="fbst13" d="M278.5 13.5l-3-3-3 3m3-3v10m-9-12h18"/><circle class="fbst16" cx="268.5" cy="6.5" r=".6"/><circle class="fbst16" cx="270.5" cy="6.5" r=".6"/><path class="fbst13" d="M221.5 7.5h13v4h-13zm0 7h13m-13 2h9"/><circle class="fbst13" cx="275.5" cy="83.5" r="8"/><circle class="fbst13" cx="275.5" cy="107.5" r="8"/><path class="fbst13" d="M270.5 108.5l3 3 7-7"/><circle class="fbst13" cx="275.5" cy="131.5" r="8"/><path class="fbst13" d="M271.5 131.5h8"/><path class="fbst0" d="M19.5 208.5c0 1.6-1.4 3-3 3h-10c-1.7 0-3-1.4-3-3v-10c0-1.6 1.3-3 3-3h10c1.6 0 3 1.4 3 3v10zM19.5 184.5c0 1.6-1.4 3-3 3h-10c-1.7 0-3-1.4-3-3v-10c0-1.6 1.3-3 3-3h10c1.6 0 3 1.4 3 3v10zM19.5 160.5c0 1.6-1.4 3-3 3h-10c-1.7 0-3-1.4-3-3v-10c0-1.6 1.3-3 3-3h10c1.6 0 3 1.4 3 3v10zM34.5 151.5l5 4.5-5 4.5m6 18l-4.5 5-4.5-5"/><path class="fbst1" d="M78.5 180.5l3 3 7-7m-9 27h8M91.5 208.5c0 1.6-1.3 3-3 3h-10c-1.7 0-3-1.4-3-3v-10c0-1.6 1.3-3 3-3h10c1.7 0 3 1.4 3 3v10z"/><path class="fbst1" d="M91.5 184.5c0 1.6-1.3 3-3 3h-10c-1.7 0-3-1.4-3-3v-10c0-1.6 1.3-3 3-3h10c1.7 0 3 1.4 3 3v10zM91.5 160.5c0 1.6-1.3 3-3 3h-10c-1.7 0-3-1.4-3-3v-10c0-1.6 1.3-3 3-3h10c1.7 0 3 1.4 3 3v10zM106.5 151.5l5 4.5-5 4.5m6 18l-4.5 5-4.5-5"/><path class="fbst9" d="M150.5 180.5l3 3 7-7m-9 27h8M163.5 208.5c0 1.6-1.4 3-3 3h-10c-1.6 0-3-1.4-3-3v-10c0-1.6 1.4-3 3-3h10c1.6 0 3 1.4 3 3v10z"/><path class="fbst9" d="M163.5 184.5c0 1.6-1.4 3-3 3h-10c-1.6 0-3-1.4-3-3v-10c0-1.6 1.4-3 3-3h10c1.6 0 3 1.4 3 3v10zM163.5 160.5c0 1.6-1.4 3-3 3h-10c-1.6 0-3-1.4-3-3v-10c0-1.6 1.4-3 3-3h10c1.6 0 3 1.4 3 3v10zM178.5 151.5l5 4.5-5 4.5m6 18l-4.5 5-4.5-5"/><path class="fbst13" d="M222.5 180.5l3 3 7-7m-9 27h8M235.5 208.5c0 1.6-1.4 3-3 3h-10c-1.6 0-3-1.4-3-3v-10c0-1.6 1.4-3 3-3h10c1.6 0 3 1.4 3 3v10z"/><path class="fbst13" d="M235.5 184.5c0 1.6-1.4 3-3 3h-10c-1.6 0-3-1.4-3-3v-10c0-1.6 1.4-3 3-3h10c1.6 0 3 1.4 3 3v10zM235.5 160.5c0 1.6-1.4 3-3 3h-10c-1.6 0-3-1.4-3-3v-10c0-1.6 1.4-3 3-3h10c1.6 0 3 1.4 3 3v10zM250.5 151.5l5 4.5-5 4.5m6 18l-4.5 5-4.5-5"/></symbol><symbol id="flogo" viewBox="0 0 145 30"><style>.cst0{fill:#fff}</style><path class="fcst0" d="M16.1 21.9c.2 0 .5-.1.6-.2l3.1-3.1 3.1-3.1 5.4-5.4c2.3-2.3 2.3-6.1 0-8.4-2.3-2.3-6.1-2.3-8.4 0L8.3 13.3c-.2.2-.3.4-.2.6l.1 6.7L5 23.8c-2.1-2.4-3.3-5.5-3.3-8.7 0-3.5 1.4-6.8 3.9-9.3C8 3.3 11.3 2 14.9 2c.5 0 .8-.4.8-.8s-.4-.8-.8-.8c-4 0-7.7 1.5-10.5 4.4C1.5 7.4 0 11.2 0 15.1c0 4 1.5 7.7 4.4 10.5 2.8 2.8 6.5 4.4 10.5 4.4s7.7-1.5 10.5-4.4c2.8-2.8 4.4-6.5 4.4-10.5 0-.5-.4-.8-.8-.8-.5 0-.8.4-.8.8 0 3.5-1.4 6.8-3.9 9.3s-5.8 3.9-9.3 3.9c-3.2 0-6.3-1.2-8.7-3.3l3.2-3.2 6.6.1zm-.3-1.7H11l1.5-1.5 4.7.1-1.4 1.4zm-.2-4.6l4.7.1-1.5 1.5-4.7-.2 1.5-1.4zm-5.8-1.4L21.1 2.9c1.7-1.7 4.3-1.7 6 0 .8.8 1.2 1.9 1.2 3s-.4 2.2-1.2 3L22 14l-4.7-.1 4-4c.3-.3.3-.9 0-1.2-.3-.3-.9-.3-1.2 0l-8.5 8.5L9.8 19v-4.8zm39.3-8.1v2h-8.7v6.3h7.4v2h-7.4v7.8h-2.5V6.1h11.2zm7 5.1c.8 0 1.5.1 2.1.4.6.3 1.2.6 1.7 1.1s.8 1.1 1.1 1.8c.3.7.4 1.5.4 2.4 0 .4 0 .6-.1.7-.1.1-.2.2-.4.2h-8.5c0 .8.1 1.5.3 2.1s.5 1.1.8 1.5.8.7 1.3.9c.5.2 1 .3 1.6.3.6 0 1.1-.1 1.5-.2.4-.1.8-.3 1.1-.4.3-.2.5-.3.7-.4.2-.1.4-.2.5-.2.2 0 .3.1.4.2l.6.8c-.3.3-.6.6-1 .9-.4.2-.8.5-1.2.6-.4.2-.9.3-1.4.4-.5.1-.9.1-1.4.1-.9 0-1.7-.1-2.4-.4-.7-.3-1.4-.7-1.9-1.3s-1-1.3-1.3-2.1c-.3-.9-.5-1.8-.5-2.9 0-.9.1-1.7.4-2.5.3-.8.7-1.4 1.2-2 .5-.6 1.1-1 1.9-1.3.7-.5 1.5-.7 2.5-.7zm0 1.7c-1.1 0-1.9.3-2.6.9-.6.6-1 1.5-1.2 2.6h7c0-.5-.1-1-.2-1.4-.1-.4-.4-.8-.6-1.1-.3-.3-.6-.6-1-.7-.4-.3-.9-.3-1.4-.3zm17.1 11.3c-.3 0-.5-.2-.6-.5l-.2-1.6c-.5.7-1.2 1.2-1.9 1.6-.7.4-1.5.6-2.4.6-.7 0-1.4-.1-2-.4-.6-.3-1.1-.7-1.5-1.2-.4-.5-.7-1.2-1-2s-.3-1.8-.3-2.8c0-.9.1-1.8.4-2.6.3-.8.6-1.5 1.1-2.1.5-.6 1.1-1.1 1.7-1.4.7-.3 1.5-.5 2.3-.5.8 0 1.5.1 2 .4.6.3 1.1.6 1.5 1.1V5.6h2.2v18.6h-1.3zm-4.3-1.6c.7 0 1.4-.2 1.9-.5.6-.3 1.1-.8 1.5-1.4v-6.2c-.4-.6-.9-.9-1.4-1.2-.5-.2-1-.3-1.6-.3-1.2 0-2.1.4-2.8 1.3-.6.9-1 2.1-1 3.6 0 .8.1 1.5.2 2.1.1.6.4 1.1.6 1.5.3.4.6.7 1 .8.6.2 1.1.3 1.6.3zm14.5-11.4c.8 0 1.5.1 2.1.4.6.3 1.2.6 1.7 1.1s.8 1.1 1.1 1.8c.3.7.4 1.5.4 2.4 0 .4 0 .6-.1.7-.1.1-.2.2-.4.2h-8.5c0 .8.1 1.5.3 2.1s.5 1.1.8 1.5c.4.4.8.7 1.3.9.5.2 1 .3 1.6.3.6 0 1.1-.1 1.5-.2.4-.1.8-.3 1.1-.4.3-.2.5-.3.7-.4s.4-.2.5-.2c.2 0 .3.1.4.2l.6.8c-.3.3-.6.6-1 .9-.4.2-.8.5-1.2.6-.4.2-.9.3-1.4.4-.5.1-.9.1-1.4.1-.9 0-1.7-.1-2.4-.4-.7-.3-1.4-.7-1.9-1.3-.5-.6-1-1.3-1.3-2.1-.3-.9-.5-1.8-.5-2.9 0-.9.1-1.7.4-2.5.3-.8.7-1.4 1.2-2 .5-.6 1.1-1 1.9-1.3.8-.5 1.6-.7 2.5-.7zm.1 1.7c-1.1 0-1.9.3-2.6.9-.6.6-1 1.5-1.2 2.6h7c0-.5-.1-1-.2-1.4-.1-.4-.4-.8-.6-1.1-.3-.3-.6-.6-1-.7-.5-.3-.9-.3-1.4-.3zm8.1 11.3V11.4h1.3c.2 0 .4 0 .5.1.1.1.2.3.2.5l.2 2c.4-.9 1-1.6 1.6-2.1.6-.5 1.4-.8 2.3-.8.4 0 .7 0 1 .1.3.1.6.2.8.3l-.3 1.7c-.1.2-.2.3-.4.3-.1 0-.3 0-.5-.1s-.6-.1-1-.1c-.8 0-1.4.2-2 .7-.5.5-1 1.1-1.3 2v8.2h-2.4zm19.1 0h-1c-.2 0-.4 0-.5-.1-.1-.1-.2-.2-.3-.4l-.3-1.2c-.3.3-.7.6-1 .8-.3.2-.7.4-1 .6-.4.2-.7.3-1.1.4-.4.1-.8.1-1.3.1s-1-.1-1.4-.2c-.4-.1-.8-.3-1.1-.6-.3-.3-.6-.6-.8-1.1-.2-.4-.3-.9-.3-1.5 0-.5.1-1 .4-1.5.3-.5.7-.9 1.3-1.2.6-.4 1.4-.7 2.4-.9 1-.2 2.2-.3 3.7-.3v-1c0-1-.2-1.8-.6-2.3-.4-.5-1.1-.8-1.9-.8-.5 0-1 .1-1.4.2-.4.1-.7.3-1 .5s-.5.3-.7.5c-.2.1-.4.2-.6.2-.2 0-.3 0-.4-.1l-.3-.3-.4-.7c.7-.7 1.5-1.2 2.3-1.5.8-.3 1.7-.5 2.7-.5.7 0 1.4.1 1.9.4.6.2 1 .6 1.4 1 .4.4.7.9.9 1.5.2.6.3 1.3.3 2v8zm-5.8-1.4c.4 0 .8 0 1.1-.1l.9-.3c.3-.1.6-.3.8-.5.3-.2.5-.5.8-.7v-2.6c-1 0-1.9.1-2.6.2-.7.1-1.3.3-1.8.5s-.8.5-1 .7c-.2.3-.3.6-.3 1 0 .3.1.6.2.9.1.2.3.4.4.6.2.2.4.3.7.3h.8zm11.7-17.2v18.6h-2.2V5.6h2.2zm7 1.8c0 .2 0 .4-.1.6-.1.2-.2.4-.4.5-.1.1-.3.3-.5.3-.2.1-.4.2-.6.2s-.4 0-.6-.1c-.2-.1-.4-.2-.5-.3-.1-.1-.3-.3-.3-.5-.1-.2-.1-.4-.1-.6 0-.2 0-.4.1-.6.1-.2.2-.4.3-.5.1-.1.3-.3.5-.3.2-.1.4-.1.6-.1s.4 0 .6.1c.2.1.4.2.5.3.1.1.3.3.4.5 0 .1.1.3.1.5zm-.5 4v12.8h-2.2V11.4h2.2zm11.3 2.1c-.1.2-.3.3-.5.3-.1 0-.3 0-.4-.1l-.6-.3c-.2-.1-.5-.2-.8-.3-.3-.1-.7-.1-1.1-.1-.4 0-.7 0-1 .1-.3.1-.6.2-.8.4-.2.2-.4.4-.5.6-.1.2-.2.5-.2.7 0 .3.1.6.3.8.2.2.4.4.8.6.3.2.7.3 1.1.4.4.1.8.3 1.2.4.4.1.8.3 1.2.5.4.2.7.4 1.1.6.3.3.6.6.8.9.2.4.3.8.3 1.3 0 .6-.1 1.1-.3 1.6-.2.5-.5.9-.9 1.3s-.9.7-1.5.9c-.6.2-1.3.3-2.1.3-.9 0-1.7-.1-2.4-.4-.7-.3-1.3-.7-1.8-1.1l.5-.9c.1-.1.1-.2.2-.3.1-.1.2-.1.4-.1s.3.1.5.2.4.2.6.4c.2.1.5.3.9.4s.8.2 1.3.2c.4 0 .8-.1 1.2-.2.3-.1.6-.3.8-.5.2-.2.4-.4.5-.7s.2-.5.2-.8c0-.4-.1-.6-.3-.9-.2-.2-.4-.4-.8-.6-.3-.2-.7-.3-1.1-.4-.4-.1-.8-.3-1.2-.4-.4-.1-.8-.3-1.2-.5-.4-.2-.8-.4-1.1-.7-.3-.3-.6-.6-.8-1-.2-.4-.3-.8-.3-1.4 0-.5.1-1 .3-1.4.2-.5.5-.8.9-1.2.4-.3.9-.6 1.4-.8.6-.2 1.2-.3 1.9-.3.8 0 1.6.1 2.3.4s1.2.6 1.7 1.1l-.7 1zm7.5 10.9c-1 0-1.8-.3-2.3-.8-.5-.6-.8-1.4-.8-2.4v-7.8h-1.5c-.1 0-.2 0-.3-.1-.1-.1-.1-.2-.1-.4V12l2.1-.3.5-4c0-.1.1-.2.2-.3.1-.1.2-.1.4-.1h1.1v4.4h3.7v1.6H141V21c0 .5.1.9.4 1.2.3.3.6.4 1 .4.2 0 .4 0 .6-.1.2-.1.3-.1.4-.2.1-.1.2-.1.3-.2.2-.1.3-.1.3-.1.1 0 .2.1.3.2l.7 1.1c-.4.4-.9.6-1.4.9-.6.1-1.1.2-1.7.2z"/></symbol><symbol id="fmaintain" viewBox="0 0 150 150"><style>.dst0{fill:#f1f2f2}.st1{fill:#bd993a}.st2{fill:#ffcc4e}.st3{fill:#2d4447}.dst4{fill:#bcbec0}.dst5{fill:#808285}.dst6{fill:#84c98b}.dst7{fill:#619869}.st8{fill:#04c1e9}.st9{fill:#0592b1}</style><g id="fdwheel"><circle class="fdst0" cx="75" cy="75" r="75"/><path class="fdst4" d="M75 42.5v-10c-2.5 0-4.6 2.1-4.6 4.6v5.8c-5.5.8-10.6 3-14.9 6.2L51.4 45c-1.8-1.8-4.7-1.8-6.5 0-1.8 1.8-1.8 4.7 0 6.5l4.1 4.1c-3.2 4.3-5.4 9.3-6.2 14.9H37c-2.5 0-4.6 2.1-4.6 4.6s2.1 4.6 4.6 4.6h5.8c.8 5.5 3 10.6 6.2 14.9l-4.1 4.1c-1.8 1.8-1.8 4.7 0 6.5 1.8 1.8 4.7 1.8 6.5 0l4.1-4.1c4.3 3.2 9.3 5.4 14.9 6.2v5.8c0 2.5 2.1 4.6 4.6 4.6V42.5z"/><path class="fdst5" d="M112.9 70.4h-5.8c-.8-5.5-3-10.6-6.2-14.9l4.1-4.1c.9-.9 1.3-2.1 1.3-3.3 0-1.2-.4-2.4-1.3-3.3-1.8-1.8-4.7-1.8-6.5 0l-4 4.2c-4.3-3.2-9.3-5.4-14.9-6.2V37c0-2.5-2.1-4.6-4.6-4.6v85c2.5 0 4.6-2.1 4.6-4.6V107c5.5-.8 10.6-3 14.9-6.2l4.1 4.1c1.8 1.8 4.7 1.8 6.5 0 .9-.9 1.3-2.1 1.3-3.3 0-1.2-.4-2.4-1.3-3.3l-4.1-4.1c3.2-4.3 5.4-9.3 6.2-14.9h5.8c2.5 0 4.6-2.1 4.6-4.6s-2.2-4.3-4.7-4.3z"/><path class="fdst6" d="M75 95.6c-11.4 0-20.6-9.2-20.6-20.6S63.6 54.4 75 54.4v41.2z"/><path class="fdst7" d="M75 54.4c11.4 0 20.6 9.2 20.6 20.6S86.4 95.6 75 95.6V54.4z"/><circle class="fdst0" cx="75" cy="75" r="12.6"/></g></symbol><symbol id="fsecure" viewBox="0 0 150 150"><style>.est0{fill:#f1f2f2}.est1{fill:#bd993a}.est2{fill:#ffcc4e}.est3{fill:#2d4447}.est4{fill:#bcbec0}.est5{fill:#808285}.st6{fill:#84c98b}.st7{fill:#619869}.st8{fill:#04c1e9}.st9{fill:#0592b1}</style><circle class="fest0" cx="75" cy="75" r="75"/><g id="feshackle"><path class="fest4" d="M51.5 58.5v7.4h8.6v-7.4c0-8.2 6.7-14.9 14.9-14.9V35c-13 0-23.5 10.5-23.5 23.5z"/><path class="fest5" d="M89.9 58.5v7.4h8.6v-7.4C98.5 45.5 88 35 75 35v8.6c8.2 0 14.9 6.7 14.9 14.9z"/></g><g id="febody"><path class="fest1" d="M106.5 110.7V70.2c0-2.4-1.9-4.3-4.3-4.3H75V115h27.2c2.3 0 4.3-1.9 4.3-4.3z"/><path class="fest2" d="M47.8 65.9c-2.4 0-4.3 1.9-4.3 4.3v40.5c0 2.4 1.9 4.3 4.3 4.3H75V65.9H47.8z"/></g><path class="fest3" d="M81.5 84c0-3.6-2.9-6.5-6.5-6.5s-6.5 2.9-6.5 6.5c0 2.5 1.4 4.6 3.5 5.7l-3.1 14.4h12.2L78 89.7c2.1-1.1 3.5-3.2 3.5-5.7z" id="fekeyhole"/></symbol><symbol id="fwebsite" viewBox="0 0 90 65"><style>.fst0{fill:#e6e7e8}.fst1{fill:#04c1e9}.fst2{fill:#0279a7}.fst3{fill:#bcbec0}.fst4{fill:#808285}</style><path class="ffst0" d="M0 0h90v65H0z"/><path class="ffst1" d="M0 10.2h45v22.3H0z"/><path class="ffst2" d="M45 10.2h45v22.3H45z"/><path class="ffst3" d="M10.2 41.1H45v4.6H10.2zm0-37.8h6.4v3.6h-6.4z"/><path class="ffst4" d="M16.6 3.3H23v3.6h-6.4z"/><path class="ffst3" d="M10.2 50.7H45v4.6H10.2z"/><path class="ffst4" d="M45 41.1h34.8v4.6H45zm0 9.6h34.8v4.6H45z"/></symbol><symbol id="fwebsites" viewBox="0 0 90 65"><style>.gst0{fill:#808285}.gst1{fill:#bcbec0}.gst2{fill:#e6e7e8}.gst3{fill:#04c1e9}.gst4{fill:#0279a7}</style><path class="fgst0" d="M20 14.4h70V65H20z"/><path class="fgst1" d="M10 7.2h70v50.6H10z"/><path class="fgst2" d="M0 0h70v50.6H0z"/><path class="fgst3" d="M0 7.9h35v17.4H0z"/><path class="fgst4" d="M35 7.9h35v17.4H35z"/><path class="fgst1" d="M7.9 32H35v3.6H7.9zm0-29.4h5v2.8h-5z"/><path class="fgst0" d="M12.9 2.6h5v2.8h-5z"/><path class="fgst1" d="M7.9 39.4H35V43H7.9z"/><path class="fgst0" d="M35 32h27.1v3.6H35zm0 7.4h27.1V43H35z"/></symbol></symbol><symbol id="website" viewBox="0 0 90 65"><style>.gst0{fill:#e6e7e8}.gst1{fill:#04c1e9}.gst2{fill:#0279a7}.gst3{fill:#bcbec0}.gst4{fill:#808285}</style><path class="gst0" d="M0 0h90v65H0z"/><path class="gst1" d="M0 10.2h45v22.3H0z"/><path class="gst2" d="M45 10.2h45v22.3H45z"/><path class="gst3" d="M10.2 41.1H45v4.6H10.2zM10.2 3.3h6.4v3.6h-6.4z"/><path class="gst4" d="M16.6 3.3H23v3.6h-6.4z"/><path class="gst3" d="M10.2 50.7H45v4.6H10.2z"/><path class="gst4" d="M45 41.1h34.8v4.6H45zM45 50.7h34.8v4.6H45z"/></symbol><symbol id="websites" viewBox="0 0 90 65"><style>.hst0{fill:#808285}.hst1{fill:#bcbec0}.hst2{fill:#e6e7e8}.hst3{fill:#04c1e9}.hst4{fill:#0279a7}</style><path class="hst0" d="M20 14.4h70V65H20z"/><path class="hst1" d="M10 7.2h70v50.6H10z"/><path class="hst2" d="M0 0h70v50.6H0z"/><path class="hst3" d="M0 7.9h35v17.4H0z"/><path class="hst4" d="M35 7.9h35v17.4H35z"/><path class="hst1" d="M7.9 32H35v3.6H7.9zM7.9 2.6h5v2.8h-5z"/><path class="hst0" d="M12.9 2.6h5v2.8h-5z"/><path class="hst1" d="M7.9 39.4H35V43H7.9z"/><path class="hst0" d="M35 32h27.1v3.6H35zM35 39.4h27.1V43H35z"/></symbol></svg>
